<?xml version="1.0" standalone="no"?>
<!DOCTYPE svg PUBLIC "-//W3C//DTD SVG 20010904//EN"
 "http://www.w3.org/TR/2001/REC-SVG-20010904/DTD/svg10.dtd">
<svg version="1.0" xmlns="http://www.w3.org/2000/svg"
 width="16.000000pt" height="16.000000pt" viewBox="0 0 16.000000 16.000000"
 preserveAspectRatio="xMidYMid meet">
<metadata>
Created by potrace 1.11, written by Peter Selinger 2001-2013
</metadata>
<g transform="translate(0.000000,16.000000) scale(0.002740,-0.002740)"
fill="#000000" stroke="none">
<path d="M1980 5628 c0 -5 -4 -7 -9 -4 -11 7 -99 -30 -123 -52 -10 -8 -18 -11
-18 -7 0 4 -8 1 -17 -7 -10 -9 -38 -27 -63 -41 -143 -80 -217 -123 -228 -134
-7 -7 -18 -13 -23 -13 -6 0 -35 -16 -65 -35 -30 -19 -56 -35 -59 -35 -2 0 -45
-24 -94 -54 -49 -30 -92 -51 -95 -48 -3 3 -6 0 -6 -6 0 -7 -7 -12 -15 -12 -8
0 -15 -3 -15 -8 0 -4 -15 -13 -32 -21 -18 -8 -35 -17 -38 -20 -3 -4 -16 -12
-30 -19 -30 -16 -65 -36 -242 -140 -76 -44 -138 -78 -138 -74 0 4 -4 2 -8 -4
-4 -6 -65 -44 -137 -85 -72 -40 -136 -79 -143 -86 -7 -7 -20 -13 -28 -13 -8 0
-14 -4 -14 -9 0 -5 -9 -13 -20 -16 -11 -3 -20 -12 -20 -18 0 -7 -8 -17 -19
-24 -10 -6 -27 -32 -37 -57 -11 -25 -22 -46 -26 -46 -3 0 -4 -10 0 -22 3 -14
2 -19 -7 -14 -14 9 -16 -1874 -2 -1902 5 -9 17 -36 26 -59 10 -24 22 -43 27
-43 4 0 8 -5 8 -11 0 -11 63 -79 73 -79 3 0 41 -22 84 -48 43 -26 107 -63 143
-82 36 -19 67 -37 70 -40 13 -13 175 -101 195 -106 6 -2 41 -15 78 -29 38 -14
73 -23 78 -20 5 4 9 2 9 -3 0 -9 185 -8 240 3 59 11 155 62 200 107 36 36 108
158 94 158 -3 0 0 8 5 18 21 39 24 159 25 1026 1 725 -2 902 -12 917 -12 17
-27 19 -125 19 -72 -1 -118 -5 -128 -13 -14 -11 -15 -105 -15 -892 1 -526 -3
-898 -9 -924 -12 -58 -77 -129 -126 -138 -96 -17 -192 1 -261 48 -14 11 -28
19 -31 19 -6 0 -179 102 -187 110 -3 3 -10 6 -17 7 -6 1 -28 14 -48 27 -20 14
-45 28 -56 31 -10 4 -19 11 -19 16 0 5 -7 9 -15 9 -38 0 -39 17 -39 902 -1
536 3 858 8 858 6 0 6 4 0 10 -26 26 15 96 59 104 7 1 38 19 69 39 31 20 62
37 68 37 5 0 10 5 10 11 0 5 4 8 9 5 5 -3 14 1 21 9 7 8 16 15 21 15 4 0 60
31 124 69 64 39 125 73 135 76 11 4 20 11 20 16 0 6 4 8 9 5 5 -4 11 -2 13 2
1 5 28 22 58 38 30 17 100 57 155 89 55 32 118 68 140 81 138 78 372 215 382
224 7 5 14 10 17 10 2 0 57 30 123 68 65 37 123 67 128 66 16 -1 48 -16 75
-34 14 -9 50 -31 80 -47 30 -17 95 -53 143 -82 49 -28 93 -51 98 -51 5 0 9 -4
9 -10 0 -5 4 -10 10 -10 5 0 38 -17 72 -38 35 -21 70 -41 78 -45 8 -4 33 -18
55 -32 22 -14 54 -32 70 -40 17 -9 75 -43 130 -76 55 -33 116 -67 135 -77 19
-9 41 -23 48 -29 7 -7 19 -13 27 -13 7 0 15 -3 17 -8 4 -10 165 -102 178 -102
5 0 10 -4 10 -10 0 -5 6 -10 14 -10 7 0 19 -7 26 -15 7 -9 15 -13 18 -11 2 3
31 -13 63 -34 32 -22 64 -40 72 -40 23 0 29 -28 8 -39 -10 -6 -21 -7 -25 -4
-3 3 -6 1 -6 -4 0 -6 -20 -23 -45 -37 -25 -13 -43 -19 -39 -13 3 7 -2 3 -11
-8 -9 -11 -23 -19 -32 -17 -10 2 -12 -1 -7 -9 5 -9 2 -10 -9 -6 -10 4 -16 2
-14 -6 1 -7 -6 -11 -15 -11 -10 1 -18 -2 -18 -6 0 -10 -71 -53 -87 -53 -7 0
-13 -4 -13 -8 0 -5 -17 -16 -37 -25 -21 -10 -49 -26 -62 -36 -20 -15 -27 -16
-40 -5 -9 7 -43 26 -76 42 -33 15 -68 32 -79 37 -10 5 -26 11 -35 13 -9 1 -34
8 -56 14 -98 26 -347 44 -388 28 -9 -3 -19 -2 -22 4 -4 5 -12 6 -18 2 -7 -4
-21 -8 -32 -9 -55 -4 -114 -14 -138 -23 -15 -6 -27 -9 -27 -6 0 16 -183 -70
-227 -108 -70 -59 -149 -168 -137 -189 3 -4 1 -8 -4 -8 -5 0 -9 -6 -10 -12 0
-7 -3 -31 -7 -53 -9 -55 -12 -128 -6 -140 3 -5 6 -20 7 -33 3 -63 42 -142 96
-195 16 -15 26 -32 23 -37 -3 -6 1 -7 9 -4 20 8 20 0 0 -31 -9 -14 -21 -22
-27 -18 -5 3 -7 1 -3 -5 3 -6 -5 -30 -18 -54 -21 -38 -31 -69 -39 -128 -5 -29
-18 -42 -32 -30 -9 8 -15 8 -20 0 -3 -6 -10 -8 -14 -5 -5 2 -15 -3 -24 -13
-15 -17 -15 -59 -1 -142 8 -52 9 -54 15 -65 4 -5 12 -27 18 -47 7 -21 17 -38
22 -38 6 0 7 -5 3 -11 -3 -6 -1 -14 5 -18 34 -21 32 -174 -1 -155 -8 4 -10 3
-5 -2 5 -5 13 -10 18 -10 5 -1 12 -2 15 -3 4 0 0 -9 -7 -18 -12 -14 -12 -15
-1 -9 11 7 12 4 3 -13 -9 -16 -9 -21 0 -21 8 0 8 -5 -2 -16 -10 -13 -10 -17 2
-25 11 -7 11 -9 0 -9 -9 0 -10 -4 -5 -12 11 -16 11 -39 0 -57 -7 -10 -6 -12 4
-6 9 6 11 4 5 -6 -13 -19 -14 -49 -2 -49 5 0 3 -8 -4 -17 -12 -14 -12 -15 -1
-9 11 7 12 4 3 -13 -9 -16 -9 -21 0 -21 8 0 8 -4 -1 -15 -10 -11 -10 -18 -1
-29 9 -11 9 -15 -1 -20 -11 -5 -11 -7 0 -12 9 -4 10 -9 2 -19 -8 -9 -8 -15 0
-20 7 -4 7 -12 0 -26 -8 -14 -7 -19 1 -19 9 0 9 -3 0 -14 -8 -10 -9 -16 -1
-21 6 -3 7 -12 3 -18 -11 -18 -11 -47 0 -47 5 0 3 -8 -4 -17 -12 -14 -12 -15
-1 -9 11 7 12 4 3 -13 -9 -16 -9 -21 0 -21 8 0 8 -4 -1 -15 -10 -11 -10 -18
-1 -29 9 -11 9 -15 -1 -20 -11 -5 -11 -7 0 -12 9 -4 10 -9 2 -19 -8 -9 -8 -15
0 -20 7 -4 7 -12 0 -26 -8 -14 -7 -19 1 -19 8 0 7 -5 -2 -17 -11 -13 -11 -17
-2 -20 9 -3 10 -10 3 -23 -7 -13 -7 -21 0 -25 7 -4 7 -13 0 -26 -8 -14 -7 -19
1 -19 7 0 9 -3 6 -6 -3 -4 -38 12 -76 35 -38 22 -74 41 -80 41 -6 0 -11 5 -11
10 0 15 -43 12 -68 -6 -12 -8 -22 -12 -22 -9 0 4 -12 -2 -27 -12 -16 -11 -59
-31 -98 -46 -86 -33 -99 -42 -91 -56 4 -6 51 -37 104 -68 53 -32 98 -61 100
-65 2 -5 10 -8 18 -8 8 0 20 -5 27 -10 7 -6 55 -37 107 -69 52 -31 94 -63 93
-69 -2 -6 3 -9 10 -7 8 4 12 -5 12 -25 1 -21 -3 -29 -12 -26 -7 3 -15 0 -19
-6 -4 -6 -3 -8 4 -4 14 9 41 -20 38 -41 -2 -10 2 -22 8 -26 8 -6 7 -10 -1 -14
-7 -2 -13 -9 -13 -14 0 -6 4 -8 9 -5 12 8 44 -31 36 -43 -3 -6 -1 -11 4 -11 6
0 11 -6 11 -14 0 -8 7 -17 16 -20 8 -3 14 -9 11 -13 -2 -5 7 -18 20 -30 13
-12 23 -19 23 -15 0 3 7 -4 16 -16 8 -12 20 -20 25 -17 8 6 13 -8 10 -27 0 -4
6 -5 15 -1 8 3 28 -3 43 -14 14 -11 46 -30 71 -43 54 -28 68 -41 62 -60 -2 -9
2 -7 12 5 12 16 15 17 16 5 0 -9 -6 -22 -12 -30 -11 -12 -10 -12 4 -1 14 10
18 9 27 -6 6 -10 11 -13 11 -8 0 6 -6 17 -12 24 -11 11 -9 11 9 2 15 -7 20
-17 17 -29 -5 -16 -5 -16 6 1 10 15 13 16 26 2 9 -8 23 -15 32 -15 13 0 13 -3
-4 -15 -18 -14 -17 -14 9 -5 22 8 27 7 27 -6 0 -10 6 -14 15 -10 8 3 15 1 15
-4 0 -6 7 -10 15 -10 8 0 15 -5 15 -11 0 -5 -4 -8 -8 -5 -5 3 -9 -1 -9 -8 0
-15 21 -15 34 -1 4 4 2 5 -6 0 -10 -6 -12 -4 -7 4 10 15 36 -4 37 -28 0 -10 2
-11 6 -3 5 14 33 17 33 3 0 -9 29 -28 78 -50 12 -6 27 -22 32 -36 12 -31 20
-33 13 -2 -4 20 -3 21 10 5 8 -10 17 -15 20 -11 4 3 7 0 7 -7 0 -7 3 -10 6 -7
13 13 43 -13 37 -31 -6 -15 -5 -16 12 -2 16 14 17 13 11 -7 -4 -12 -3 -24 2
-27 6 -3 9 0 8 7 0 6 3 12 9 12 5 0 9 -3 8 -7 -2 -5 8 -8 22 -8 17 0 25 -6 25
-17 0 -15 2 -16 10 -3 8 12 10 11 10 -7 0 -26 11 -35 30 -23 13 8 48 -5 61
-23 3 -5 9 -8 13 -8 18 3 18 -1 0 -21 -15 -18 -16 -20 -2 -9 20 15 73 7 63 -9
-4 -6 1 -13 9 -16 9 -3 13 -11 9 -18 -4 -6 2 -4 12 4 14 11 19 12 22 3 3 -7
13 -13 24 -13 10 0 19 -5 19 -11 0 -5 5 -7 10 -4 6 3 10 -1 10 -9 0 -8 5 -18
12 -22 7 -4 8 -3 4 4 -4 8 -2 10 7 6 8 -3 17 -14 20 -25 3 -10 11 -19 19 -19
10 0 10 2 -2 10 -8 5 -12 12 -8 15 3 3 12 0 19 -8 15 -14 39 -25 51 -23 3 0
17 -9 30 -22 14 -12 28 -19 31 -15 4 3 7 1 7 -5 0 -7 6 -11 13 -9 6 1 11 -4 9
-12 -2 -8 3 -11 13 -8 9 4 20 -1 27 -12 6 -11 17 -17 23 -15 7 3 18 -3 26 -13
13 -16 12 -17 -3 -4 -10 7 -18 9 -18 3 0 -15 26 -22 39 -9 18 18 13 -4 -6 -27
-18 -21 -18 -21 3 -4 22 19 44 24 44 9 0 -5 -8 -11 -17 -13 -15 -3 -14 -5 5
-10 12 -3 20 -2 17 2 -3 5 3 8 14 7 15 -1 17 -4 9 -14 -6 -7 -7 -13 -2 -13 4
0 -1 -7 -12 -16 -18 -14 -18 -15 4 -4 12 6 20 15 17 21 -7 11 18 12 29 2 4 -5
11 -8 14 -9 4 0 21 -7 37 -14 32 -15 40 -17 68 -19 9 0 17 -6 17 -11 0 -7 -6
-7 -19 0 -15 7 -19 7 -17 -5 1 -8 6 -18 11 -22 4 -4 5 -3 1 4 -4 8 1 11 14 10
13 -1 19 -6 15 -15 -2 -7 -1 -11 4 -7 5 3 11 2 14 -2 4 -8 0 7 -10 37 -2 8 5
4 18 -10 14 -16 20 -19 16 -8 -3 10 -2 20 3 23 6 4 10 -2 11 -12 0 -11 3 -13
6 -5 2 6 9 9 14 6 6 -4 6 -10 0 -18 -8 -9 -7 -13 3 -13 8 0 13 8 11 19 -3 13
2 18 21 18 33 0 29 -1 75 15 51 18 62 19 30 1 -21 -12 -22 -14 -5 -20 10 -4
16 -4 12 -1 -3 4 4 16 16 29 19 19 23 20 43 8 20 -13 24 -12 30 4 3 11 11 22
17 26 7 5 6 8 -2 8 -8 0 -16 -9 -19 -19 -3 -12 -11 -17 -19 -14 -25 9 26 45
58 41 15 -3 26 -2 23 0 -7 8 15 43 25 37 4 -3 6 -15 4 -28 -4 -20 -4 -20 4 -2
5 11 7 27 4 35 -4 12 -2 13 9 2 7 -6 18 -12 23 -12 6 0 5 4 -3 9 -12 8 -12 11
1 25 9 8 19 12 23 8 3 -4 11 1 17 11 8 15 12 16 26 5 12 -10 14 -10 8 -1 -4 8
-2 13 4 13 6 0 8 6 4 12 -4 7 -4 10 1 6 4 -4 14 -3 22 3 7 6 13 8 13 3 0 -4 7
1 15 12 13 18 14 17 9 -11 -3 -16 -2 -27 1 -23 6 5 12 28 14 51 1 5 6 5 11 2
6 -3 10 -2 10 3 0 6 16 19 36 31 19 12 32 17 29 11 -3 -5 -1 -10 4 -10 6 0 11
7 11 15 0 8 7 15 15 15 9 0 12 -6 8 -17 -6 -15 -5 -16 9 -3 11 10 12 17 5 22
-14 8 -12 10 36 32 20 9 37 21 37 27 0 6 7 6 20 -1 16 -8 20 -8 18 2 -2 7 2
12 9 11 7 -2 10 4 7 12 -4 8 -1 15 5 15 6 0 12 -4 12 -10 1 -5 2 -14 3 -19 3
-24 13 -18 12 6 -1 23 3 28 21 27 17 0 20 3 13 12 -8 8 -6 13 5 18 9 3 13 2
10 -4 -3 -6 -1 -10 4 -10 6 0 11 7 11 16 0 8 5 12 11 9 5 -4 21 5 34 19 16 17
30 24 41 19 10 -4 15 -2 11 3 -3 5 8 17 24 27 17 9 28 13 25 8 -3 -4 1 -8 8
-8 8 0 12 6 9 13 -2 7 5 17 16 24 16 8 21 8 21 -1 0 -14 14 -3 16 12 1 5 2 12
3 16 0 4 8 -2 16 -13 14 -18 14 -18 8 4 -4 15 -1 22 10 22 8 0 20 7 27 15 6 8
15 14 18 13 21 -2 32 3 26 14 -4 6 -3 8 3 5 6 -4 17 0 24 9 12 14 14 14 20 -3
7 -16 8 -15 8 5 1 12 7 22 14 22 7 0 23 9 35 20 22 21 37 27 27 10 -3 -6 1 -7
9 -4 9 3 14 10 11 14 -3 5 0 12 6 16 8 4 9 3 5 -4 -4 -7 -3 -12 2 -12 5 0 12
9 15 21 3 12 10 18 16 14 6 -3 11 -1 11 6 0 7 3 10 6 6 4 -3 13 1 21 9 8 8 19
12 24 9 5 -4 9 -1 9 6 0 7 8 5 22 -7 13 -12 18 -13 13 -4 -15 24 -14 39 1 33
8 -3 14 0 14 7 0 7 6 10 14 7 8 -3 22 1 33 9 16 14 16 14 -7 3 -21 -9 -23 -9
-12 2 6 7 22 14 35 14 33 2 76 26 82 47 4 10 11 18 16 18 6 0 7 -5 4 -10 -3
-6 1 -13 9 -16 9 -3 13 -11 9 -18 -3 -6 -2 -7 2 -3 16 14 14 36 -2 30 -13 -5
-13 -3 -4 15 7 12 19 22 29 22 15 0 15 -2 2 -11 -13 -9 -13 -10 0 -6 8 2 14
11 12 20 -1 8 3 19 9 23 8 5 10 3 4 -7 -4 -8 1 -5 12 6 11 11 19 22 17 24 -8
9 35 30 53 27 12 -3 20 1 20 10 0 10 -4 11 -13 3 -8 -7 -14 -7 -19 1 -3 5 -1
10 5 10 6 0 8 5 4 12 -5 8 -2 9 10 5 14 -6 17 -3 12 9 -5 12 -2 15 10 10 15
-6 15 -4 3 11 -12 14 -12 16 0 8 11 -6 13 -4 8 9 -5 14 -3 17 8 12 8 -3 15 -1
15 4 0 6 -4 10 -9 10 -5 0 -7 9 -4 20 3 11 10 20 15 20 5 0 6 -5 2 -12 -4 -7
-3 -8 4 -4 8 5 9 13 2 25 -5 10 -7 21 -4 24 3 3 7 25 9 49 1 29 7 42 15 40 10
-2 11 0 3 10 -6 7 -11 57 -12 112 -1 54 -3 104 -4 110 -1 6 4 10 12 8 11 -2
12 0 3 10 -7 8 -11 78 -11 191 -1 98 -2 184 -4 190 -1 7 4 11 12 9 11 -2 12 0
3 10 -6 8 -11 54 -11 110 0 53 -2 102 -3 110 -2 7 3 12 11 10 11 -2 12 0 3 10
-7 8 -11 78 -11 191 -1 98 -2 184 -4 190 -1 7 4 11 12 9 11 -2 12 0 3 10 -6 8
-11 54 -11 110 0 53 -2 102 -3 110 -2 7 3 12 11 10 11 -2 12 0 4 10 -6 7 -12
63 -13 128 -1 63 -2 130 -3 148 0 17 -5 32 -10 32 -6 0 -8 3 -4 6 3 4 0 19 -9
35 -8 16 -12 29 -8 29 4 0 1 7 -6 15 -7 8 -9 15 -4 15 4 0 -1 7 -12 15 -10 8
-15 15 -11 15 8 0 -7 21 -35 48 -10 9 -18 22 -18 29 0 7 -6 13 -14 13 -8 0
-23 11 -34 25 -11 13 -21 22 -24 20 -2 -3 -28 11 -58 30 -29 19 -58 31 -63 28
-6 -3 -7 -1 -3 5 6 11 0 14 -20 11 -4 0 -10 3 -13 8 -3 5 -25 20 -48 33 -24
13 -43 27 -43 32 0 4 -7 8 -15 8 -15 0 -56 19 -65 31 -3 4 -26 17 -52 29 -26
12 -58 32 -72 45 -14 13 -27 21 -30 18 -5 -5 -57 26 -68 42 -4 5 -8 7 -8 2 0
-8 -83 44 -88 56 -2 4 -8 5 -13 1 -5 -3 -9 0 -9 6 0 6 -4 9 -9 5 -5 -3 -16 2
-24 10 -9 8 -20 15 -26 15 -6 0 -11 5 -11 12 0 6 -3 8 -6 5 -4 -4 -19 1 -33
11 -49 32 -66 42 -88 52 -13 5 -23 17 -24 27 0 10 -3 13 -5 6 -4 -9 -11 -9
-30 -1 -13 6 -24 14 -24 19 0 4 -18 14 -40 23 -22 9 -40 20 -40 26 0 5 -3 10
-7 9 -15 -2 -53 13 -53 21 0 4 -8 10 -17 13 -10 4 -45 22 -78 42 -33 20 -71
41 -85 48 -14 6 -27 14 -30 17 -3 3 -16 11 -29 18 -13 8 -38 22 -55 31 -17 10
-54 32 -82 49 -28 18 -56 32 -63 32 -6 0 -11 5 -11 10 0 6 -9 10 -20 10 -11 0
-20 5 -20 10 0 6 -5 9 -12 8 -7 -2 -12 2 -13 8 0 7 -18 34 -40 62 -29 36 -69
66 -150 113 -60 34 -112 65 -115 68 -3 4 -21 14 -40 24 -64 34 -95 52 -100 58
-3 3 -20 12 -37 20 -18 8 -33 17 -33 21 0 5 -4 8 -10 8 -8 0 -141 74 -180 100
-8 6 -23 13 -32 16 -10 4 -18 10 -18 14 0 4 -8 10 -17 13 -10 3 -40 19 -68 35
-27 16 -61 35 -75 43 -14 8 -33 20 -42 28 -10 8 -18 11 -18 7 0 -4 -7 0 -16 8
-8 9 -22 16 -30 16 -8 0 -14 4 -14 9 0 5 -8 11 -17 14 -18 6 -73 37 -83 47 -6
6 -84 49 -117 64 -13 6 -23 14 -23 19 0 4 -5 7 -10 7 -6 0 -27 11 -48 23 -20
13 -57 35 -82 49 -25 14 -61 34 -80 45 -160 93 -195 111 -202 107 -4 -3 -8 0
-8 7 0 6 -8 9 -20 6 -11 -3 -20 -1 -20 4 0 6 -29 9 -65 8 -36 -1 -65 -6 -65
-11z m610 -1503 c36 -4 75 -7 88 -8 12 -1 22 -5 22 -9 0 -5 11 -8 25 -8 14 0
25 -5 25 -11 0 -5 -4 -8 -9 -5 -5 3 -14 -1 -21 -9 -7 -8 -19 -15 -26 -15 -8 0
-14 -3 -14 -8 0 -4 -28 -23 -62 -41 -35 -19 -66 -39 -69 -44 -3 -5 -10 -9 -15
-9 -16 -1 -39 -12 -52 -25 -8 -7 -18 -11 -23 -8 -5 4 -9 2 -9 -3 0 -5 -17 -17
-37 -28 -21 -10 -44 -25 -51 -31 -7 -7 -19 -13 -26 -13 -7 0 -24 -10 -38 -23
-14 -13 -29 -22 -35 -20 -6 2 -18 -3 -26 -12 -15 -15 -67 -18 -67 -3 0 4 -7 5
-15 2 -8 -4 -15 -1 -15 5 0 6 -8 11 -17 11 -10 0 -28 16 -41 34 -36 52 -28
127 18 192 16 22 91 66 119 70 9 1 27 5 41 9 14 4 54 9 90 12 36 3 66 6 67 7
3 3 106 -2 173 -9z m2770 -2985 c-14 -10 -27 -17 -29 -14 -6 5 31 33 44 33 6
1 -1 -8 -15 -19z m-2525 -419 c3 -5 1 -12 -5 -16 -5 -3 -10 1 -10 9 0 18 6 21
15 7z m175 -101 c0 -5 -2 -10 -4 -10 -3 0 -8 5 -11 10 -3 6 -1 10 4 10 6 0 11
-4 11 -10z"/>
<path d="M4030 4519 c0 -5 5 -7 10 -4 6 3 10 8 10 11 0 2 -4 4 -10 4 -5 0 -10
-5 -10 -11z"/>
<path d="M4905 4000 c-3 -6 1 -7 9 -4 18 7 21 14 7 14 -6 0 -13 -4 -16 -10z"/>
<path d="M5106 3882 c-2 -4 4 -8 14 -8 10 0 16 4 14 8 -3 4 -9 8 -14 8 -5 0
-11 -4 -14 -8z"/>
<path d="M5665 3400 c-3 -6 1 -7 9 -4 18 7 21 14 7 14 -6 0 -13 -4 -16 -10z"/>
<path d="M5655 1511 c-3 -5 -2 -12 3 -15 5 -3 9 1 9 9 0 17 -3 19 -12 6z"/>
<path d="M1776 1462 c-3 -5 1 -9 9 -9 8 0 12 4 9 9 -3 4 -7 8 -9 8 -2 0 -6 -4
-9 -8z"/>
<path d="M1833 1365 c0 -8 4 -12 9 -9 5 3 6 10 3 15 -9 13 -12 11 -12 -6z"/>
<path d="M1877 1269 c7 -7 15 -10 18 -7 3 3 -2 9 -12 12 -14 6 -15 5 -6 -5z"/>
<path d="M1917 1229 c7 -7 15 -10 18 -7 3 3 -2 9 -12 12 -14 6 -15 5 -6 -5z"/>
<path d="M5518 1223 c7 -3 16 -2 19 1 4 3 -2 6 -13 5 -11 0 -14 -3 -6 -6z"/>
<path d="M1951 1204 c0 -11 3 -14 6 -6 3 7 2 16 -1 19 -3 4 -6 -2 -5 -13z"/>
<path d="M5495 1200 c-3 -6 1 -7 9 -4 18 7 21 14 7 14 -6 0 -13 -4 -16 -10z"/>
<path d="M1970 1174 c0 -2 9 -8 20 -14 11 -6 20 -7 20 -2 0 6 -9 12 -20 15
-11 3 -20 3 -20 1z"/>
<path d="M2023 1165 c0 -7 6 -11 14 -8 7 3 13 6 13 8 0 2 -6 5 -13 8 -8 3 -14
-1 -14 -8z"/>
<path d="M2040 1140 c-8 -5 -10 -10 -5 -10 6 0 17 5 25 10 8 5 11 10 5 10 -5
0 -17 -5 -25 -10z"/>
<path d="M5386 1118 c3 -5 10 -6 15 -3 13 9 11 12 -6 12 -8 0 -12 -4 -9 -9z"/>
<path d="M2117 1114 c-4 -4 -7 -11 -7 -15 0 -9 27 -5 37 6 4 4 3 5 -4 2 -6 -4
-13 -2 -15 4 -2 5 -7 7 -11 3z"/>
<path d="M5359 1118 c-5 -18 -6 -38 -1 -34 7 8 12 36 6 36 -2 0 -4 -1 -5 -2z"/>
<path d="M2150 1081 c0 -6 4 -13 10 -16 6 -3 7 1 4 9 -7 18 -14 21 -14 7z"/>
<path d="M5253 1055 c-3 -9 -3 -18 -1 -21 3 -3 8 4 11 16 6 23 -1 27 -10 5z"/>
<path d="M5176 1031 c-4 -5 -2 -12 3 -15 5 -4 12 -2 15 3 4 5 2 12 -3 15 -5 4
-12 2 -15 -3z"/>
<path d="M2274 1008 c1 -34 2 -34 17 -7 6 13 7 19 1 15 -6 -3 -12 0 -15 6 -2
7 -4 1 -3 -14z"/>
<path d="M5148 1003 c7 -3 16 -2 19 1 4 3 -2 6 -13 5 -11 0 -14 -3 -6 -6z"/>
<path d="M2330 959 c0 -5 5 -7 10 -4 6 3 10 8 10 11 0 2 -4 4 -10 4 -5 0 -10
-5 -10 -11z"/>
<path d="M5027 926 c-4 -10 -1 -13 8 -9 8 3 12 9 9 14 -7 12 -11 11 -17 -5z"/>
<path d="M2420 920 c-9 -6 -10 -10 -3 -10 6 0 15 5 18 10 8 12 4 12 -15 0z"/>
<path d="M2470 910 c0 -5 5 -10 11 -10 5 0 7 5 4 10 -3 6 -8 10 -11 10 -2 0
-4 -4 -4 -10z"/>
<path d="M4956 895 c-9 -26 -7 -32 5 -12 6 10 9 21 6 23 -2 3 -7 -2 -11 -11z"/>
<path d="M2450 879 c0 -5 5 -7 10 -4 6 3 10 8 10 11 0 2 -4 4 -10 4 -5 0 -10
-5 -10 -11z"/>
<path d="M4895 869 c-4 -6 -5 -12 -2 -15 2 -3 7 2 10 11 7 17 1 20 -8 4z"/>
<path d="M2500 866 c0 -2 11 -6 25 -8 13 -3 22 -1 19 3 -5 9 -44 13 -44 5z"/>
<path d="M4913 855 c-3 -9 -3 -19 1 -22 3 -4 6 1 6 10 0 8 6 18 13 20 9 4 9 6
-1 6 -7 1 -15 -6 -19 -14z"/>
<path d="M4959 853 c-13 -16 -12 -17 4 -4 9 7 17 15 17 17 0 8 -8 3 -21 -13z"/>
<path d="M2654 799 c-4 -7 -3 -9 4 -5 5 3 13 0 15 -6 4 -9 6 -10 6 -1 1 17
-16 25 -25 12z"/>
<path d="M4787 799 c7 -7 15 -10 18 -7 3 3 -2 9 -12 12 -14 6 -15 5 -6 -5z"/>
<path d="M2627 779 c7 -7 15 -10 18 -7 3 3 -2 9 -12 12 -14 6 -15 5 -6 -5z"/>
<path d="M4744 758 c9 -5 23 -5 32 0 12 6 7 9 -16 9 -23 0 -28 -3 -16 -9z"/>
<path d="M4715 739 c-4 -6 -5 -12 -2 -15 2 -3 7 2 10 11 7 17 1 20 -8 4z"/>
<path d="M4676 724 c-4 -9 -4 -19 -1 -22 3 -3 5 0 5 7 0 7 4 9 10 6 6 -3 7 1
4 9 -8 20 -10 20 -18 0z"/>
<path d="M2850 680 c0 -5 6 -9 13 -7 6 1 11 -3 10 -9 -1 -6 5 -11 13 -11 18 0
18 2 -2 21 -18 18 -34 21 -34 6z"/>
<path d="M4616 682 c-3 -5 1 -9 9 -9 8 0 12 4 9 9 -3 4 -7 8 -9 8 -2 0 -6 -4
-9 -8z"/>
<path d="M2920 620 c-12 -7 -10 -9 7 -7 12 0 19 5 17 9 -6 10 -6 10 -24 -2z"/>
<path d="M4461 604 c0 -11 3 -14 6 -6 3 7 2 16 -1 19 -3 4 -6 -2 -5 -13z"/>
<path d="M4436 587 c3 -10 9 -15 12 -12 3 3 0 11 -7 18 -10 9 -11 8 -5 -6z"/>
<path d="M3013 575 c0 -8 4 -12 9 -9 5 3 6 10 3 15 -9 13 -12 11 -12 -6z"/>
<path d="M4410 580 c0 -5 5 -10 11 -10 5 0 7 5 4 10 -3 6 -8 10 -11 10 -2 0
-4 -4 -4 -10z"/>
<path d="M3070 549 c0 -5 -6 -7 -12 -3 -7 4 -9 3 -5 -1 13 -15 36 -14 30 1 -6
17 -13 18 -13 3z"/>
<path d="M4295 519 c-4 -6 -5 -12 -2 -15 2 -3 7 2 10 11 7 17 1 20 -8 4z"/>
<path d="M4336 522 c-3 -5 1 -9 9 -9 8 0 12 4 9 9 -3 4 -7 8 -9 8 -2 0 -6 -4
-9 -8z"/>
<path d="M3115 500 c-3 -5 -1 -10 4 -10 6 0 11 5 11 10 0 6 -2 10 -4 10 -3 0
-8 -4 -11 -10z"/>
<path d="M3190 491 c0 -6 4 -13 10 -16 6 -3 7 1 4 9 -7 18 -14 21 -14 7z"/>
<path d="M3223 472 c0 -10 7 -19 14 -19 17 0 16 5 -1 23 -13 12 -15 12 -13 -4z"/>
<path d="M3267 439 c7 -9 10 -19 6 -22 -3 -4 -1 -7 5 -7 17 0 15 16 -5 31 -16
12 -17 12 -6 -2z"/>
<path d="M4194 442 c3 -5 0 -13 -6 -15 -9 -4 -10 -6 -1 -6 17 -1 25 16 12 25
-7 4 -9 3 -5 -4z"/>
<path d="M4110 398 c0 -4 4 -8 9 -8 6 0 12 4 15 8 3 5 -1 9 -9 9 -8 0 -15 -4
-15 -9z"/>
<path d="M3350 358 c0 -4 4 -8 9 -8 6 0 12 4 15 8 3 5 -1 9 -9 9 -8 0 -15 -4
-15 -9z"/>
<path d="M3530 305 c0 -5 5 -17 10 -25 5 -8 10 -10 10 -5 0 6 -5 17 -10 25 -5
8 -10 11 -10 5z"/>
<path d="M3495 280 c3 -5 8 -10 11 -10 2 0 4 5 4 10 0 6 -5 10 -11 10 -5 0 -7
-4 -4 -10z"/>
<path d="M3571 274 c0 -11 3 -14 6 -6 3 7 2 16 -1 19 -3 4 -6 -2 -5 -13z"/>
<path d="M3793 251 c0 -11 5 -18 9 -15 4 3 5 11 1 19 -7 21 -12 19 -10 -4z"/>
<path d="M3815 260 c3 -5 8 -10 11 -10 2 0 4 5 4 10 0 6 -5 10 -11 10 -5 0 -7
-4 -4 -10z"/>
<path d="M3765 240 c3 -5 8 -10 11 -10 2 0 4 5 4 10 0 6 -5 10 -11 10 -5 0 -7
-4 -4 -10z"/>
</g>
</svg>
